<svg xmlns="http://www.w3.org/2000/svg" viewBox="0 0 1200 630">
  <defs>
    <linearGradient id="bgGrad" x1="0%" y1="0%" x2="100%" y2="100%">
      <stop offset="0%" style="stop-color:#0a0a0f"/>
      <stop offset="100%" style="stop-color:#12121a"/>
    </linearGradient>
    <linearGradient id="textGrad" x1="0%" y1="0%" x2="100%" y2="100%">
      <stop offset="0%" style="stop-color:#00f0ff"/>
      <stop offset="100%" style="stop-color:#ff00aa"/>
    </linearGradient>
    <linearGradient id="accentGrad" x1="0%" y1="0%" x2="100%" y2="0%">
      <stop offset="0%" style="stop-color:#00f0ff"/>
      <stop offset="100%" style="stop-color:#00ff88"/>
    </linearGradient>
  </defs>

  <!-- Background -->
  <rect width="1200" height="630" fill="url(#bgGrad)"/>

  <!-- Grid pattern -->
  <g opacity="0.1" stroke="#00f0ff" stroke-width="0.5">
    <line x1="0" y1="0" x2="0" y2="630"/>
    <line x1="50" y1="0" x2="50" y2="630"/>
    <line x1="100" y1="0" x2="100" y2="630"/>
    <line x1="150" y1="0" x2="150" y2="630"/>
    <line x1="200" y1="0" x2="200" y2="630"/>
    <line x1="250" y1="0" x2="250" y2="630"/>
    <line x1="300" y1="0" x2="300" y2="630"/>
    <line x1="350" y1="0" x2="350" y2="630"/>
    <line x1="400" y1="0" x2="400" y2="630"/>
    <line x1="450" y1="0" x2="450" y2="630"/>
    <line x1="500" y1="0" x2="500" y2="630"/>
    <line x1="550" y1="0" x2="550" y2="630"/>
    <line x1="600" y1="0" x2="600" y2="630"/>
    <line x1="650" y1="0" x2="650" y2="630"/>
    <line x1="700" y1="0" x2="700" y2="630"/>
    <line x1="750" y1="0" x2="750" y2="630"/>
    <line x1="800" y1="0" x2="800" y2="630"/>
    <line x1="850" y1="0" x2="850" y2="630"/>
    <line x1="900" y1="0" x2="900" y2="630"/>
    <line x1="950" y1="0" x2="950" y2="630"/>
    <line x1="1000" y1="0" x2="1000" y2="630"/>
    <line x1="1050" y1="0" x2="1050" y2="630"/>
    <line x1="1100" y1="0" x2="1100" y2="630"/>
    <line x1="1150" y1="0" x2="1150" y2="630"/>
    <line x1="1200" y1="0" x2="1200" y2="630"/>
    <line x1="0" y1="50" x2="1200" y2="50"/>
    <line x1="0" y1="100" x2="1200" y2="100"/>
    <line x1="0" y1="150" x2="1200" y2="150"/>
    <line x1="0" y1="200" x2="1200" y2="200"/>
    <line x1="0" y1="250" x2="1200" y2="250"/>
    <line x1="0" y1="300" x2="1200" y2="300"/>
    <line x1="0" y1="350" x2="1200" y2="350"/>
    <line x1="0" y1="400" x2="1200" y2="400"/>
    <line x1="0" y1="450" x2="1200" y2="450"/>
    <line x1="0" y1="500" x2="1200" y2="500"/>
    <line x1="0" y1="550" x2="1200" y2="550"/>
    <line x1="0" y1="600" x2="1200" y2="600"/>
  </g>

  <!-- Glow circles -->
  <circle cx="200" cy="500" r="200" fill="#00f0ff" opacity="0.05"/>
  <circle cx="1000" cy="130" r="200" fill="#ff00aa" opacity="0.05"/>

  <!-- Main title -->
  <text x="600" y="260" font-family="monospace" font-size="120" font-weight="bold" fill="url(#textGrad)" text-anchor="middle" letter-spacing="8">HACKFATE</text>

  <!-- Tagline -->
  <text x="600" y="340" font-family="sans-serif" font-size="28" fill="#a0a0b8" text-anchor="middle" font-style="italic">"Truth cannot be approximated."</text>

  <!-- Pillars -->
  <text x="600" y="420" font-family="monospace" font-size="20" fill="#00f0ff" text-anchor="middle" letter-spacing="2">EXACT COMPUTATION  |  POST-QUANTUM SECURITY  |  ZERO DRIFT</text>

  <!-- Bottom accent line -->
  <rect x="100" y="520" width="1000" height="3" rx="1.5" fill="url(#accentGrad)" opacity="0.6"/>

  <!-- URL -->
  <text x="600" y="580" font-family="monospace" font-size="24" fill="#6a6a80" text-anchor="middle">hackfate.us</text>
</svg>
